name ./resultDataOpenSim/trcMotMarkerGrf/sub09/grf-04-09.mot
datacolumns 19
datarows 27
range 1.01600000 1.12000000
endheader

                time	     ground_force_vx	     ground_force_vy	     ground_force_vz	     ground_force_px	     ground_force_py	     ground_force_pz	   l_ground_force_vx	   l_ground_force_vy	   l_ground_force_vz	   l_ground_force_px	   l_ground_force_py	   l_ground_force_pz	     ground_torque_x	     ground_torque_y	     ground_torque_z	   l_ground_torque_x	   l_ground_torque_y	   l_ground_torque_z	
          1.01600000	          0.00000000	          0.00000000	          0.00000000	          0.00000000	          0.00000000	          0.00000000	         10.20046810	        418.71388139	         10.01819976	          0.21927752	         -0.07500000	          0.01699538	          0.00000000	          0.00000000	          0.00000000	          0.00000000	         -4.68022049	          0.00000000	
          1.02000000	          0.00000000	          0.00000000	          0.00000000	          0.00000000	          0.00000000	          0.00000000	         15.19308366	        426.27784735	          9.34166079	          0.21888950	         -0.07500000	          0.01670910	          0.00000000	          0.00000000	          0.00000000	          0.00000000	         -4.99430550	          0.00000000	
          1.02400000	          0.00000000	          0.00000000	          0.00000000	          0.00000000	          0.00000000	          0.00000000	         20.32965730	        435.09104769	          8.68842296	          0.21860224	         -0.07500000	          0.01652334	          0.00000000	          0.00000000	          0.00000000	          0.00000000	         -5.28255477	          0.00000000	
          1.02800000	          0.00000000	          0.00000000	          0.00000000	          0.00000000	          0.00000000	          0.00000000	         25.48294894	        445.16324673	          8.07273879	          0.21846596	         -0.07500000	          0.01644535	          0.00000000	          0.00000000	          0.00000000	          0.00000000	         -5.54018857	          0.00000000	
          1.03200000	          0.00000000	          0.00000000	          0.00000000	          0.00000000	          0.00000000	          0.00000000	         30.49401487	        456.48487492	          7.51176769	          0.21848797	         -0.07500000	          0.01646550	          0.00000000	          0.00000000	          0.00000000	          0.00000000	         -5.76604722	          0.00000000	
          1.03600000	          0.00000000	          0.00000000	          0.00000000	          0.00000000	          0.00000000	          0.00000000	         35.19257511	        469.04320100	          7.02063298	          0.21864656	         -0.07500000	          0.01656044	          0.00000000	          0.00000000	          0.00000000	          0.00000000	         -5.96170856	          0.00000000	
          1.04000000	          0.00000000	          0.00000000	          0.00000000	          0.00000000	          0.00000000	          0.00000000	         39.42325259	        482.81447302	          6.60207662	          0.21888240	         -0.07500000	          0.01668840	          0.00000000	          0.00000000	          0.00000000	          0.00000000	         -6.12994322	          0.00000000	
          1.04400000	          0.00000000	          0.00000000	          0.00000000	          0.00000000	          0.00000000	          0.00000000	         43.07470084	        497.74303038	          6.25550097	          0.21910160	         -0.07500000	          0.01679910	          0.00000000	          0.00000000	          0.00000000	          0.00000000	         -6.27291991	          0.00000000	
          1.04800000	          0.00000000	          0.00000000	          0.00000000	          0.00000000	          0.00000000	          0.00000000	         46.11143417	        513.73569981	          5.99835224	          0.21922989	         -0.07500000	          0.01685421	          0.00000000	          0.00000000	          0.00000000	          0.00000000	         -6.39079835	          0.00000000	
          1.05200000	          0.00000000	          0.00000000	          0.00000000	          0.00000000	          0.00000000	          0.00000000	         48.58604484	        530.67031331	          5.87352980	          0.21925094	         -0.07500000	          0.01684324	          0.00000000	          0.00000000	          0.00000000	          0.00000000	         -6.48133605	          0.00000000	
          1.05600000	          0.00000000	          0.00000000	          0.00000000	          0.00000000	          0.00000000	          0.00000000	         50.62069239	        548.38714594	          5.93740523	          0.21918470	         -0.07500000	          0.01678058	          0.00000000	          0.00000000	          0.00000000	          0.00000000	         -6.54074081	          0.00000000	
          1.06000000	          0.00000000	          0.00000000	          0.00000000	          0.00000000	          0.00000000	          0.00000000	         52.38339501	        566.66123938	          6.23618815	          0.21906572	         -0.07500000	          0.01668975	          0.00000000	          0.00000000	          0.00000000	          0.00000000	         -6.56537297	          0.00000000	
          1.06400000	          0.00000000	          0.00000000	          0.00000000	          0.00000000	          0.00000000	          0.00000000	         54.07935284	        585.18732476	          6.78313224	          0.21895633	         -0.07500000	          0.01659017	          0.00000000	          0.00000000	          0.00000000	          0.00000000	         -6.55344028	          0.00000000	
          1.06800000	          0.00000000	          0.00000000	          0.00000000	          0.00000000	          0.00000000	          0.00000000	         55.93636477	        603.60829229	          7.55814915	          0.21893509	         -0.07500000	          0.01649281	          0.00000000	          0.00000000	          0.00000000	          0.00000000	         -6.50590492	          0.00000000	
          1.07200000	          0.00000000	          0.00000000	          0.00000000	          0.00000000	          0.00000000	          0.00000000	         58.16579011	        621.57857326	          8.53164936	          0.21904588	         -0.07500000	          0.01640060	          0.00000000	          0.00000000	          0.00000000	          0.00000000	         -6.42637501	          0.00000000	
          1.07600000	          0.00000000	          0.00000000	          0.00000000	          0.00000000	          0.00000000	          0.00000000	         60.92202172	        638.81296058	          9.67959677	          0.21927754	         -0.07500000	          0.01630993	          0.00000000	          0.00000000	          0.00000000	          0.00000000	         -6.32027905	          0.00000000	
          1.08000000	          0.00000000	          0.00000000	          0.00000000	          0.00000000	          0.00000000	          0.00000000	         64.28367470	        655.11282479	         10.97573266	          0.21957676	         -0.07500000	          0.01621894	          0.00000000	          0.00000000	          0.00000000	          0.00000000	         -6.19372291	          0.00000000	
          1.08400000	          0.00000000	          0.00000000	          0.00000000	          0.00000000	          0.00000000	          0.00000000	         68.25472606	        670.39705677	         12.39279984	          0.21987110	         -0.07500000	          0.01612407	          0.00000000	          0.00000000	          0.00000000	          0.00000000	         -6.05227098	          0.00000000	
          1.08800000	          0.00000000	          0.00000000	          0.00000000	          0.00000000	          0.00000000	          0.00000000	         72.78754837	        684.70247327	         13.92466831	          0.22010379	         -0.07500000	          0.01601854	          0.00000000	          0.00000000	          0.00000000	          0.00000000	         -5.89988181	          0.00000000	
          1.09200000	          0.00000000	          0.00000000	          0.00000000	          0.00000000	          0.00000000	          0.00000000	         77.81856634	        698.11796532	         15.58702169	          0.22024556	         -0.07500000	          0.01590101	          0.00000000	          0.00000000	          0.00000000	          0.00000000	         -5.73832643	          0.00000000	
          1.09600000	          0.00000000	          0.00000000	          0.00000000	          0.00000000	          0.00000000	          0.00000000	         83.28699958	        710.70468060	         17.38295047	          0.22028761	         -0.07500000	          0.01577159	          0.00000000	          0.00000000	          0.00000000	          0.00000000	         -5.56726024	          0.00000000	
          1.10000000	          0.00000000	          0.00000000	          0.00000000	          0.00000000	          0.00000000	          0.00000000	         89.12979968	        722.46714817	         19.29045075	          0.22023960	         -0.07500000	          0.01563079	          0.00000000	          0.00000000	          0.00000000	          0.00000000	         -5.38480860	          0.00000000	
          1.10400000	          0.00000000	          0.00000000	          0.00000000	          0.00000000	          0.00000000	          0.00000000	         95.26838658	        733.38329296	         21.28876138	          0.22013310	         -0.07500000	          0.01549429	          0.00000000	          0.00000000	          0.00000000	          0.00000000	         -5.18847524	          0.00000000	
          1.10800000	          0.00000000	          0.00000000	          0.00000000	          0.00000000	          0.00000000	          0.00000000	        101.60249176	        743.43467871	         23.36599454	          0.22003172	         -0.07500000	          0.01539024	          0.00000000	          0.00000000	          0.00000000	          0.00000000	         -4.97632357	          0.00000000	
          1.11200000	          0.00000000	          0.00000000	          0.00000000	          0.00000000	          0.00000000	          0.00000000	        108.01157512	        752.57426713	         25.49542647	          0.21997208	         -0.07500000	          0.01533399	          0.00000000	          0.00000000	          0.00000000	          0.00000000	         -4.74835999	          0.00000000	
          1.11600000	          0.00000000	          0.00000000	          0.00000000	          0.00000000	          0.00000000	          0.00000000	        114.35341125	        760.69383509	         27.61637458	          0.21999594	         -0.07500000	          0.01532850	          0.00000000	          0.00000000	          0.00000000	          0.00000000	         -4.50781993	          0.00000000	
          1.12000000	          0.00000000	          0.00000000	          0.00000000	          0.00000000	          0.00000000	          0.00000000	        120.46916869	        767.68590634	         29.62366758	          0.22012066	         -0.07500000	          0.01536003	          0.00000000	          0.00000000	          0.00000000	          0.00000000	         -4.26182244	          0.00000000	
